<?xml version="1.0"?>
<svg width="512" height="512" xmlns="http://www.w3.org/2000/svg" xmlns:svg="http://www.w3.org/2000/svg" preserveAspectRatio="xMidYMid meet" version="1.0">
 <metadata>Created by potrace 1.16, written by Peter Selinger 2001-2019</metadata>

 <g class="layer">
  <title>Layer 1</title>
  <g fill="#000000" id="svg_1" transform="matrix(0.1, 0, 0, -0.1, 0, 0)">
   <path d="m2340,-66c-19,-2 -73,-9 -120,-15c-824,-100 -1564,-625 -1950,-1383c-180,-355 -257,-666 -267,-1085c-6,-259 4,-395 49,-611c157,-766 698,-1452 1404,-1780c233,-108 350,-138 413,-105c56,28 61,57 61,340l0,257l-32,-6c-18,-3 -97,-9 -174,-12c-259,-12 -431,35 -549,150c-45,44 -67,79 -124,197c-79,165 -139,252 -213,308c-29,22 -69,53 -89,68c-45,35 -74,82 -60,96c6,6 30,13 53,17c156,21 323,-84 466,-295c76,-113 152,-178 249,-216c99,-38 292,-29 426,21c39,15 57,27 57,39c0,71 59,210 121,283c46,55 52,50 -83,68c-361,47 -678,213 -830,434c-90,131 -162,321 -195,516c-20,120 -23,401 -5,485c35,162 92,289 184,410c61,79 61,80 49,120c-49,172 -52,326 -7,499c34,132 44,146 102,146c115,0 369,-101 572,-227l72,-45l88,21c352,85 752,85 1104,0l88,-21l72,44c234,144 443,227 569,228c26,0 51,-6 57,-12c16,-20 60,-176 71,-255c19,-128 11,-231 -29,-373l-13,-46l58,-74c161,-210 225,-457 196,-769c-39,-420 -180,-697 -441,-866c-177,-115 -362,-182 -595,-214c-139,-20 -131,-13 -82,-74c23,-28 55,-80 70,-114c51,-115 57,-176 57,-624c0,-445 1,-455 55,-497c43,-34 104,-29 226,17c350,133 632,314 894,576c426,425 686,966 745,1551c16,154 8,531 -14,669c-59,363 -194,713 -391,1010c-413,622 -1027,1015 -1765,1130c-100,16 -516,29 -600,19z" fill="#95a5a6" id="svg_2"/>
  </g>
 </g>
</svg>