<?xml version="1.0"?>
<svg width="480" height="480" xmlns="http://www.w3.org/2000/svg" xmlns:svg="http://www.w3.org/2000/svg" preserveAspectRatio="xMidYMid meet" version="1.0">
 <metadata>Created by potrace 1.16, written by Peter Selinger 2001-2019</metadata>

 <g class="layer">
  <title>Layer 1</title>
  <g fill="#000000" id="svg_1" transform="matrix(0.1, 0, 0, -0.1, 0, 0)">
   <path d="m240,-27c-96,-33 -173,-108 -214,-206l-21,-52l-3,-2055c-2,-1354 1,-2081 7,-2132c18,-132 82,-227 193,-285l53,-28l2145,0l2145,0l53,28c111,58 175,153 193,285c6,51 9,778 7,2132c-3,1944 -4,2057 -21,2100c-40,101 -122,180 -220,214c-43,15 -236,16 -2160,16c-1894,-1 -2117,-3 -2157,-17zm1000,-675c218,-101 311,-350 209,-556c-126,-257 -465,-316 -665,-115c-159,160 -162,408 -6,575c90,96 172,129 312,125c77,-2 105,-8 150,-29zm2249,-1068c247,-50 426,-202 510,-436c79,-217 91,-382 91,-1236l0,-638l-359,0l-360,0l-3,683c-4,668 -4,684 -26,762c-32,117 -79,181 -166,225c-66,33 -74,35 -175,35c-80,0 -118,-5 -156,-19c-152,-58 -230,-178 -255,-393c-5,-50 -10,-349 -10,-690l0,-603l-355,0l-355,0l0,1140l0,1140l340,0l339,0l3,-156l3,-156l39,57c115,166 333,286 561,309c72,7 238,-5 334,-24zm-2059,-1170l0,-1140l-355,0l-355,0l0,1140l0,1140l355,0l355,0l0,-1140z" fill="#95a5a6" id="svg_2"/>
  </g>
 </g>
</svg>