<?xml version="1.0"?>
<svg width="32" height="48" xmlns="http://www.w3.org/2000/svg" xmlns:svg="http://www.w3.org/2000/svg">

 <g class="layer">
  <title>Layer 1</title>
  <path clip-rule="evenodd" d="m23.4,23.65c-0.05,0.28 -0.15,0.55 -0.31,0.78c-0.16,0.23 -0.37,0.42 -0.62,0.56c-0.49,0.32 -0.93,0.48 -1.36,0.64c-0.93,0.32 -1.91,0.64 -2.95,1.01c-1.09,0.38 -2.07,0.75 -2.95,1.02c-1.09,0.37 -2.12,0.69 -3.11,1.07c-0.74,0.31 -1.43,0.73 -2.07,1.22c-0.58,0.54 -1.1,1.15 -1.52,1.82c-0.44,0.75 -0.71,1.71 -0.71,2.83c0,2.24 0.54,3.95 1.63,5.02c1.09,1.12 3.11,1.65 6.11,1.65c3.05,0 5.13,-0.58 6.22,-1.76c1.09,-1.17 1.63,-2.83 1.63,-4.96l0,-10.9l0.01,0zm-7.86,-23.65c5.35,0 9.28,1.02 11.78,3.1c2.51,2.03 3.77,4.64 3.77,7.74l0,26.37c0,1.07 -0.22,2.25 -0.6,3.53c-0.39,1.28 -1.15,2.45 -2.35,3.52c-1.14,1.07 -2.72,1.98 -4.74,2.67c-2.02,0.7 -4.64,1.07 -7.86,1.07c-3.21,0 -5.83,-0.37 -7.85,-1.07c-2.01,-0.69 -3.6,-1.6 -4.74,-2.67c-1.07,-0.96 -1.87,-2.17 -2.35,-3.52c-0.38,-1.28 -0.6,-2.46 -0.6,-3.52l0,-4.22c0,-2.24 0.6,-4.33 1.8,-6.14c1.2,-1.87 2.89,-3.15 5.07,-3.95c1.09,-0.38 2.35,-0.75 3.76,-1.23c1.42,-0.48 2.73,-0.96 4.04,-1.39c1.31,-0.43 2.46,-0.86 3.43,-1.23c0.6,-0.24 1.2,-0.45 1.8,-0.64l0.99,-0.48c0.38,-0.21 0.76,-0.53 1.14,-0.96c0.38,-0.43 0.71,-0.91 0.99,-1.44c0.29,-0.58 0.44,-1.22 0.43,-1.87l0,-1.71c0.01,-0.62 -0.13,-1.24 -0.38,-1.82c-0.22,-0.64 -0.66,-1.22 -1.26,-1.76c-0.59,-0.53 -1.41,-0.96 -2.39,-1.28c-0.99,-0.32 -2.29,-0.48 -3.77,-0.48c-3.05,0 -5.07,0.59 -6.16,1.82c-0.93,1.06 -1.47,2.4 -1.58,3.89c0,0.32 -0.27,0.54 -0.6,0.54l-6.65,0.11c-0.16,0 -0.31,-0.07 -0.42,-0.18c-0.12,-0.11 -0.18,-0.26 -0.18,-0.42l0,-1.54c0,-1.5 0.27,-2.89 0.87,-4.22c0.6,-1.34 1.53,-2.46 2.78,-3.42c1.26,-0.96 2.89,-1.76 4.86,-2.29c1.91,-0.65 4.25,-0.91 6.98,-0.91l-0.01,0z" fill="#9d8a8a" fill-rule="evenodd" id="svg_1"/>
 </g>
</svg>